<?xml version="1.0" encoding="UTF-8"?>
<svg id="Calque_1" data-name="Calque 1" xmlns="http://www.w3.org/2000/svg" viewBox="0 0 937.18 696.64">
  <defs>
    <style>
      .cls-1 {
        fill: #7ea1c4;
      }

      .cls-1, .cls-2, .cls-3 {
        stroke-width: 0px;
      }

      .cls-2 {
        fill: #25353f;
      }

      .cls-3 {
        fill: #c78a5c;
      }
    </style>
  </defs>
  <g>
    <path class="cls-2" d="m931.51,198.41C824.14,85.7,683.87,17.69,531.25,3.02c-15.08-1.51-30.44-2.47-45.94-2.88-5.49,0-11.11-.14-16.73-.14-30.99,0-61.57,2.19-91.6,6.45-40.04,5.62-78.98,15.08-116.55,27.97-34.55,11.79-68.01,26.6-100.1,44.43-13.44,7.27-26.6,15.22-39.49,23.72-41.41,26.88-80.08,58.96-115.18,95.71l-.07.07c-7.5,7.96-7.47,20.39.07,28.31l.13.14c107.37,112.58,247.64,180.45,400.12,195.12,15.22,1.51,30.44,2.47,45.94,2.88,5.49,0,11.11.14,16.73.14,30.99,0,61.57-2.19,91.6-6.44,40.04-5.62,78.98-14.95,116.69-27.97,34.55-11.79,67.87-26.6,99.96-44.15,13.44-7.4,26.6-15.36,39.49-23.72,41.41-27.01,80.08-58.96,115.18-95.85l.07-.07c7.5-7.96,7.47-20.39-.07-28.31h0ZM332.29,56.63c15.77-3.7,31.81-6.72,47.99-9.19,4.14,5.57,5.91,13.04,4.41,20.84-1.98,10.23-10.4,18.7-20.61,20.8-17.3,3.56-32.61-9.45-32.61-26.28,0-2.19.27-4.25.82-6.17Zm-82.41,25.5c3.43,42.65,38.53,76.1,81.58,76.1,45.25,0,81.86-37.02,81.86-82.82,0-2.68-.13-5.33-.38-7.96-1.28-13.26,9.56-24.67,22.87-25.41,10.89-.6,21.81-.91,32.78-.91,3.33,0,6.65.03,9.98.09,12.29.21,22.87,9.55,23.74,21.81.29,4.08.43,8.2.43,12.38,0,94.34-76.79,171.26-171.26,171.26-70.56,0-131.18-42.91-157.43-103.93-4.83-11.24-.12-24.56,10.64-30.36,21.15-11.42,42.88-21.5,65.2-30.25Zm143.42,267.52v.3c.01,15.7-14.23,27.46-29.69,24.76-109.45-19.11-210.66-68.27-294.3-143.58-11.04-9.94-11.22-27.15-.19-37.11,11.81-10.67,23.99-20.79,36.49-30.36,12.06-9.23,29.77-5.46,36.67,8.07,35.15,68.81,106.78,116.08,189.18,116.08,26.74,0,52.25-4.94,75.83-13.99-9.05,23.58-13.99,49.09-13.99,75.83Zm259.02,5.62h-.14c-8.5,2.88-17.28,5.35-26.05,7.82h-.14c-13.64-3.37-23.15-17.26-19.51-32.66,2.27-9.6,10.24-17.39,19.86-19.57,17.5-3.97,33.11,9.33,33.11,26.17,0,6.99-2.74,13.57-7.13,18.24Zm34.96-12.48c-3.43-42.65-38.67-76.1-81.58-76.1-45.25,0-81.86,37.16-81.86,82.96,0,2.72.13,5.41.38,8.06,1.25,13.14-9.52,24.43-22.7,25.16-10.94.61-21.92.92-32.94.92-3.37,0-6.73-.03-10.1-.09-12.24-.21-22.73-9.52-23.61-21.73-.06-.89-.12-1.78-.17-2.67-5-89.87,62.61-170.43,152.1-180.04,78.59-8.44,147.93,36.51,176.43,103.13,4.76,11.12.16,24.31-10.47,30.09-21.2,11.53-43.09,21.63-65.48,30.31Zm144.43-81.46c-12.07,9.28-29.82,5.51-36.74-8.05-35.1-68.85-106.82-116.17-189.28-116.17-26.74,0-52.25,4.94-75.83,13.99,9.05-23.45,13.99-49.09,13.99-75.7v-.45c-.02-15.7,14.22-27.46,29.68-24.76,109.55,19.13,210.77,68.37,294.42,143.69,11.05,9.95,11.21,27.17.17,37.12-11.81,10.64-23.94,20.73-36.41,30.32Z"/>
    <path class="cls-1" d="m249.88,82.13c3.43,42.65,38.53,76.1,81.58,76.1,45.25,0,81.86-37.02,81.86-82.82,0-2.68-.13-5.33-.38-7.96-1.28-13.26,9.56-24.67,22.87-25.41,10.89-.6,21.81-.91,32.78-.91,3.33,0,6.65.03,9.98.09,12.29.21,22.87,9.55,23.74,21.81.29,4.08.43,8.2.43,12.38,0,94.34-76.79,171.26-171.26,171.26-70.56,0-131.18-42.91-157.43-103.93-4.83-11.24-.12-24.56,10.64-30.36,21.15-11.42,42.88-21.5,65.2-30.25Z"/>
    <path class="cls-3" d="m687.29,342.8c-3.43-42.65-38.67-76.1-81.58-76.1-45.25,0-81.86,37.16-81.86,82.96,0,2.72.13,5.41.38,8.06,1.25,13.14-9.52,24.43-22.7,25.16-10.94.61-21.92.92-32.94.92-3.37,0-6.73-.03-10.1-.09-12.24-.21-22.73-9.52-23.61-21.73-.06-.89-.12-1.78-.17-2.67-5-89.87,62.61-170.43,152.1-180.04,78.59-8.44,147.93,36.51,176.43,103.13,4.76,11.12.16,24.31-10.47,30.09-21.2,11.53-43.09,21.63-65.48,30.31Z"/>
  </g>
  <g>
    <g>
      <path class="cls-2" d="m196.86,532.36c-.59-1.58-1.24-3.13-1.95-4.63-.59-1.28-1.22-2.53-1.88-3.75-6.28-11.55-14.59-20.31-24.92-26.28-10.33-5.98-21.58-8.97-33.73-8.97-13.58,0-24.01,2.28-31.3,6.84-6.64,4.15-11.69,8.85-15.14,14.09-.64.98-1.74,1.56-2.92,1.56-1.94,0-3.52-1.58-3.52-3.52v-11.19c0-1.95-1.57-3.52-3.52-3.52h-30.64c-1.94,0-3.52,1.57-3.52,3.52v188.77c0,1.95,1.58,3.52,3.52,3.52h31.25c1.94,0,3.52-1.57,3.52-3.52v-55.36c0-1.95,1.58-3.53,3.52-3.53h.09c1.12,0,2.19.53,2.84,1.44,2.1,2.96,4.76,5.87,7.98,8.75,3.75,3.34,8.71,6.07,14.9,8.2,6.17,2.13,13.82,3.19,22.94,3.19,12.15,0,23.4-2.99,33.73-8.96,8.98-5.2,16.43-12.5,22.35-21.91-1.92-5.21-2.88-11.03-2.88-17.45,0-10.33,2.48-18.99,7.45-25.98,2.12-2.99,4.59-5.66,7.42-8.01-.03-12.52-1.88-23.62-5.59-33.3Zm-32.7,37.51c0,14.59-3.9,25.68-11.7,33.28-7.8,7.59-17.68,11.39-29.63,11.39s-21.58-3.8-29.48-11.39c-7.9-7.6-11.85-18.69-11.85-33.28v-3.04c0-14.58,3.95-25.68,11.85-33.27,7.9-7.6,17.73-11.4,29.48-11.4s21.58,3.8,29.48,11.4c7.9,7.59,11.85,18.69,11.85,33.27v3.04Z"/>
      <path class="cls-3" d="m738.13,635.55l33.03-45.88c-1.1-6.06-3.29-11.39-6.56-16-4.97-6.99-11.86-12.26-20.67-15.8-8.81-3.55-18.89-5.32-30.24-5.32h-41.2c-.07,0-.13-.06-.13-.13v-8.38c0-7.09,2.24-12.92,6.69-17.47,4.46-4.56,11.55-6.84,21.27-6.84s16.62,2.18,21.27,6.53c4.64,4.33,7.67,9.91,9.09,16.73.02.07.09.12.16.09l30.78-10.34,4.22-1.42c.07-.03.11-.1.08-.16-2.43-7.65-6.31-14.66-11.66-21-4.29-5.11-9.75-9.43-16.37-12.98-1.66-.89-3.39-1.73-5.2-2.52-9.02-3.95-20.01-5.93-32.98-5.93-19.85,0-35.55,4.97-47.1,14.89-11.55,9.93-17.32,24.31-17.32,43.16v56.21c0,6.08-2.84,9.12-8.51,9.12h-9.63v-167.12l-38.29,8v190.72h37.88s0,0,0,0h23.4c7.6,0,13.85-1.88,18.74-5.62,2.26-1.73,4.03-3.97,5.24-6.47,1.21-2.51,1.85-5.3,1.85-8.15,0-.07.06-.12.13-.12h5.56s.1.03.11.08c.83,2.42,2.64,5.58,5.45,9.49,2.84,3.95,7.29,7.44,13.37,10.48,6.08,3.04,14.39,4.56,24.92,4.56,9.45,0,18.03-1.45,25.76-4.35-3.55-.7-5.4-4.95-3.15-8.07Zm-10.76-23.74c-4.26,3.44-10.43,5.16-18.54,5.16-10.73,0-19.49-2.98-26.29-8.96-6.78-5.97-10.18-13.93-10.18-23.86v-2.91c0-.07.06-.13.13-.13h38.47c7.09,0,12.66,1.52,16.71,4.56,4.06,3.04,6.08,7.3,6.08,12.77s-2.13,9.93-6.38,13.37Z"/>
      <path class="cls-2" d="m886.2,643.73h-32.18c-1.71,0-3.31-.85-4.27-2.27l-31.27-46.22c-.96-1.42-2.56-2.26-4.27-2.26s-3.31.84-4.27,2.26l-31.27,46.22c-.96,1.42-2.56,2.27-4.27,2.27h-32.18c-.36,0-.7-.03-1.03-.1-3.55-.7-5.4-4.95-3.15-8.07l33.03-45.88,13.62-18.91c1.3-1.8,1.29-4.23,0-6.03l-23.15-31.99,4.22-1.42c.07-.03.11-.1.08-.16-2.43-7.65-6.31-14.66-11.66-21-4.29-5.11-9.75-9.43-16.37-12.98.44-2.27,2.39-4.19,5.06-4.19h31.56c1.7,0,3.29.83,4.25,2.24l31.27,45.66c.96,1.4,2.55,2.24,4.25,2.24h.04c1.7,0,3.29-.84,4.25-2.24l31.27-45.66c.96-1.41,2.55-2.24,4.25-2.24h31.57c4.2,0,6.64,4.76,4.17,8.17l-46,63.57c-1.3,1.8-1.3,4.23-.01,6.03l46.65,64.79c2.46,3.41.02,8.17-4.18,8.17Z"/>
    </g>
    <g>
      <path class="cls-2" d="m125.06,688.79v-19.45h4.93v2.12h.72c.34-.65.92-1.22,1.71-1.71.8-.48,1.84-.73,3.14-.73,1.41,0,2.53.27,3.38.8.85.54,1.5,1.24,1.95,2.1h.72c.45-.84,1.09-1.53,1.91-2.08.82-.55,1.99-.82,3.5-.82,1.22,0,2.33.25,3.32.76,1,.51,1.79,1.28,2.39,2.31.6,1.03.9,2.33.9,3.9v12.79h-5.01v-12.43c0-1.07-.28-1.88-.84-2.41-.56-.54-1.34-.8-2.35-.8-1.14,0-2.02.36-2.65,1.08-.62.72-.94,1.75-.94,3.08v11.49h-5.01v-12.43c0-1.07-.28-1.88-.84-2.41s-1.34-.8-2.35-.8c-1.14,0-2.02.36-2.65,1.08-.62.72-.94,1.75-.94,3.08v11.49h-5.01Z"/>
      <path class="cls-2" d="m161.55,667.07c-.9,0-1.66-.29-2.29-.86s-.93-1.33-.93-2.27.31-1.7.93-2.28c.62-.57,1.39-.86,2.29-.86s1.7.29,2.31.86c.61.58.92,1.33.92,2.28s-.31,1.7-.92,2.27-1.38.86-2.31.86Zm-2.51,21.73v-19.45h5.01v19.45h-5.01Z"/>
      <path class="cls-2" d="m178.63,689.34c-1.96,0-3.69-.41-5.19-1.24-1.5-.82-2.67-1.99-3.5-3.49-.84-1.5-1.25-3.27-1.25-5.31v-.47c0-2.04.41-3.81,1.23-5.31.82-1.5,1.98-2.67,3.46-3.49,1.49-.82,3.21-1.24,5.17-1.24s3.62.43,5.05,1.27c1.43.85,2.55,2.03,3.34,3.53.8,1.5,1.19,3.25,1.19,5.24v1.69h-14.37c.05,1.33.56,2.42,1.51,3.25.95.84,2.12,1.25,3.5,1.25s2.44-.3,3.1-.9c.66-.6,1.17-1.27,1.51-2l4.1,2.12c-.37.68-.91,1.42-1.61,2.22-.7.8-1.64,1.48-2.81,2.04-1.17.56-2.65.84-4.46.84Zm-4.82-12.51h9.23c-.11-1.12-.56-2.03-1.37-2.71-.81-.68-1.86-1.02-3.16-1.02s-2.43.34-3.22,1.02-1.29,1.58-1.47,2.71Z"/>
      <path class="cls-2" d="m200.12,689.11c-1.54,0-2.89-.35-4.04-1.04-1.15-.69-2.05-1.65-2.69-2.88-.64-1.23-.95-2.64-.95-4.24v-11.61h5.01v11.22c0,1.47.36,2.56,1.09,3.29.73.73,1.77,1.1,3.12,1.1,1.54,0,2.73-.5,3.58-1.51.85-1.01,1.27-2.41,1.27-4.22v-9.88h5.01v19.45h-4.93v-2.55h-.72c-.32.65-.92,1.29-1.79,1.92-.88.63-2.2.94-3.98.94Z"/>
      <path class="cls-2" d="m215.35,688.79l7.16-9.8-7.08-9.65h5.81l4.5,6.47h.72l4.5-6.47h5.81l-7.08,9.65,7.16,9.8h-5.89l-4.5-6.55h-.72l-4.5,6.55h-5.89Z"/>
      <path class="cls-2" d="m254.91,688.79l-6.29-19.45h5.33l4.58,15.84h.72l4.58-15.84h5.33l-6.29,19.45h-7.96Z"/>
      <path class="cls-2" d="m281.41,689.34c-1.96,0-3.73-.39-5.29-1.18-1.57-.78-2.8-1.92-3.7-3.41-.9-1.49-1.35-3.28-1.35-5.37v-.63c0-2.09.45-3.88,1.35-5.37.9-1.49,2.13-2.63,3.7-3.41,1.57-.78,3.33-1.18,5.29-1.18s3.73.39,5.29,1.18c1.56.78,2.8,1.92,3.7,3.41.9,1.49,1.35,3.28,1.35,5.37v.63c0,2.09-.45,3.88-1.35,5.37-.9,1.49-2.14,2.63-3.7,3.41-1.57.78-3.33,1.18-5.29,1.18Zm0-4.39c1.54,0,2.81-.49,3.82-1.47,1.01-.98,1.51-2.39,1.51-4.22v-.39c0-1.83-.5-3.24-1.49-4.22s-2.28-1.47-3.84-1.47-2.81.49-3.82,1.47c-1.01.98-1.51,2.39-1.51,4.22v.39c0,1.83.5,3.23,1.51,4.22,1.01.98,2.28,1.47,3.82,1.47Z"/>
      <path class="cls-2" d="m303.9,689.11c-1.54,0-2.89-.35-4.04-1.04-1.15-.69-2.05-1.65-2.69-2.88-.64-1.23-.95-2.64-.95-4.24v-11.61h5.01v11.22c0,1.47.36,2.56,1.09,3.29.73.73,1.77,1.1,3.12,1.1,1.54,0,2.73-.5,3.58-1.51.85-1.01,1.27-2.41,1.27-4.22v-9.88h5.01v19.45h-4.93v-2.55h-.72c-.32.65-.92,1.29-1.79,1.92-.88.63-2.2.94-3.98.94Z"/>
      <path class="cls-2" d="m329.09,689.34c-2.57,0-4.68-.55-6.33-1.65-1.64-1.1-2.64-2.67-2.98-4.71l4.62-1.18c.18.92.5,1.63.93,2.16.44.52.98.9,1.63,1.12.65.22,1.36.33,2.13.33,1.17,0,2.03-.2,2.59-.61.56-.4.84-.91.84-1.51s-.27-1.07-.8-1.39c-.53-.33-1.38-.59-2.55-.8l-1.11-.2c-1.38-.26-2.64-.62-3.78-1.08-1.14-.46-2.06-1.09-2.75-1.9-.69-.81-1.03-1.86-1.03-3.14,0-1.93.72-3.42,2.15-4.45,1.43-1.03,3.32-1.55,5.65-1.55,2.2,0,4.03.48,5.49,1.45,1.46.97,2.41,2.24,2.87,3.8l-4.66,1.41c-.21-.99-.64-1.7-1.29-2.12-.65-.42-1.45-.63-2.41-.63s-1.68.16-2.19.49c-.5.33-.76.78-.76,1.35,0,.63.27,1.09.8,1.39.53.3,1.25.53,2.15.69l1.11.2c1.48.26,2.83.61,4.04,1.04,1.21.43,2.16,1.05,2.87,1.84.7.8,1.05,1.88,1.05,3.24,0,2.04-.75,3.61-2.25,4.73s-3.51,1.67-6.03,1.67Z"/>
      <path class="cls-2" d="m351.85,688.79v-19.45h4.93v2.12h.72c.34-.65.92-1.22,1.71-1.71.8-.48,1.84-.73,3.14-.73,1.41,0,2.53.27,3.38.8.85.54,1.5,1.24,1.95,2.1h.72c.45-.84,1.09-1.53,1.91-2.08.82-.55,1.99-.82,3.5-.82,1.22,0,2.33.25,3.32.76,1,.51,1.79,1.28,2.39,2.31.6,1.03.9,2.33.9,3.9v12.79h-5.01v-12.43c0-1.07-.28-1.88-.84-2.41-.56-.54-1.34-.8-2.35-.8-1.14,0-2.02.36-2.65,1.08-.62.72-.94,1.75-.94,3.08v11.49h-5.01v-12.43c0-1.07-.28-1.88-.84-2.41s-1.34-.8-2.35-.8c-1.14,0-2.02.36-2.65,1.08-.62.72-.94,1.75-.94,3.08v11.49h-5.01Z"/>
      <path class="cls-2" d="m395.22,689.34c-1.96,0-3.73-.39-5.29-1.18-1.57-.78-2.8-1.92-3.7-3.41-.9-1.49-1.35-3.28-1.35-5.37v-.63c0-2.09.45-3.88,1.35-5.37.9-1.49,2.13-2.63,3.7-3.41,1.57-.78,3.33-1.18,5.29-1.18s3.73.39,5.29,1.18c1.56.78,2.8,1.92,3.7,3.41.9,1.49,1.35,3.28,1.35,5.37v.63c0,2.09-.45,3.88-1.35,5.37-.9,1.49-2.14,2.63-3.7,3.41-1.57.78-3.33,1.18-5.29,1.18Zm0-4.39c1.54,0,2.81-.49,3.82-1.47,1.01-.98,1.51-2.39,1.51-4.22v-.39c0-1.83-.5-3.24-1.49-4.22s-2.28-1.47-3.84-1.47-2.81.49-3.82,1.47c-1.01.98-1.51,2.39-1.51,4.22v.39c0,1.83.5,3.23,1.51,4.22,1.01.98,2.28,1.47,3.82,1.47Z"/>
      <path class="cls-2" d="m410.19,688.79v-19.45h4.93v2.55h.72c.32-.68.92-1.33,1.79-1.94.88-.61,2.2-.92,3.98-.92,1.54,0,2.89.35,4.04,1.04,1.15.69,2.05,1.65,2.69,2.86.64,1.22.96,2.63.96,4.26v11.61h-5.01v-11.22c0-1.46-.37-2.56-1.09-3.29-.73-.73-1.77-1.1-3.12-1.1-1.54,0-2.73.5-3.58,1.51-.85,1.01-1.27,2.41-1.27,4.22v9.88h-5.01Z"/>
      <path class="cls-2" d="m441.7,688.79c-1.3,0-2.35-.4-3.16-1.2-.81-.8-1.21-1.86-1.21-3.2v-10.98h-4.93v-4.08h4.93v-6.04h5.01v6.04h5.41v4.08h-5.41v10.12c0,.78.37,1.18,1.11,1.18h3.82v4.08h-5.57Z"/>
      <path class="cls-2" d="m452.29,688.79v-19.45h4.93v2.2h.72c.29-.78.78-1.36,1.45-1.73s1.47-.55,2.37-.55h2.39v4.39h-2.47c-1.27,0-2.32.33-3.14,1-.82.67-1.23,1.69-1.23,3.08v11.06h-5.01Z"/>
      <path class="cls-2" d="m476.32,689.34c-1.96,0-3.69-.41-5.19-1.24-1.5-.82-2.67-1.99-3.5-3.49-.84-1.5-1.25-3.27-1.25-5.31v-.47c0-2.04.41-3.81,1.23-5.31.82-1.5,1.98-2.67,3.46-3.49,1.49-.82,3.21-1.24,5.17-1.24s3.62.43,5.05,1.27c1.43.85,2.55,2.03,3.34,3.53.8,1.5,1.19,3.25,1.19,5.24v1.69h-14.37c.05,1.33.56,2.42,1.51,3.25.95.84,2.12,1.25,3.5,1.25s2.44-.3,3.1-.9c.66-.6,1.17-1.27,1.51-2l4.1,2.12c-.37.68-.91,1.42-1.61,2.22-.7.8-1.64,1.48-2.81,2.04-1.17.56-2.65.84-4.46.84Zm-4.82-12.51h9.23c-.11-1.12-.56-2.03-1.37-2.71-.81-.68-1.86-1.02-3.16-1.02s-2.43.34-3.22,1.02-1.29,1.58-1.47,2.71Z"/>
      <path class="cls-2" d="m490.29,688.79v-19.45h4.93v2.2h.72c.29-.78.78-1.36,1.45-1.73s1.47-.55,2.37-.55h2.39v4.39h-2.47c-1.27,0-2.32.33-3.14,1-.82.67-1.23,1.69-1.23,3.08v11.06h-5.01Z"/>
      <path class="cls-2" d="m516.16,696.64v-27.3h4.93v2.35h.72c.45-.76,1.15-1.43,2.11-2.02.96-.59,2.32-.88,4.1-.88,1.59,0,3.06.39,4.42,1.16,1.35.77,2.44,1.9,3.26,3.39.82,1.49,1.23,3.29,1.23,5.41v.63c0,2.12-.41,3.92-1.23,5.41-.82,1.49-1.91,2.62-3.26,3.39-1.35.77-2.83,1.16-4.42,1.16-1.19,0-2.2-.14-3.01-.41-.81-.28-1.46-.63-1.95-1.06-.49-.43-.88-.87-1.17-1.31h-.72v10.08h-5.01Zm10.35-11.61c1.57,0,2.86-.49,3.88-1.47s1.53-2.41,1.53-4.29v-.39c0-1.88-.52-3.31-1.55-4.29-1.04-.98-2.32-1.47-3.86-1.47s-2.83.49-3.86,1.47c-1.03.98-1.55,2.41-1.55,4.29v.39c0,1.88.52,3.31,1.55,4.29,1.04.98,2.32,1.47,3.86,1.47Z"/>
      <path class="cls-2" d="m550.94,689.34c-1.96,0-3.73-.39-5.29-1.18-1.57-.78-2.8-1.92-3.7-3.41-.9-1.49-1.35-3.28-1.35-5.37v-.63c0-2.09.45-3.88,1.35-5.37.9-1.49,2.13-2.63,3.7-3.41,1.57-.78,3.33-1.18,5.29-1.18s3.73.39,5.29,1.18c1.56.78,2.8,1.92,3.7,3.41.9,1.49,1.35,3.28,1.35,5.37v.63c0,2.09-.45,3.88-1.35,5.37-.9,1.49-2.14,2.63-3.7,3.41-1.57.78-3.33,1.18-5.29,1.18Zm0-4.39c1.54,0,2.81-.49,3.82-1.47,1.01-.98,1.51-2.39,1.51-4.22v-.39c0-1.83-.5-3.24-1.49-4.22s-2.28-1.47-3.84-1.47-2.81.49-3.82,1.47c-1.01.98-1.51,2.39-1.51,4.22v.39c0,1.83.5,3.23,1.51,4.22,1.01.98,2.28,1.47,3.82,1.47Z"/>
      <path class="cls-2" d="m573.42,689.11c-1.54,0-2.89-.35-4.04-1.04-1.15-.69-2.05-1.65-2.69-2.88-.64-1.23-.95-2.64-.95-4.24v-11.61h5.01v11.22c0,1.47.36,2.56,1.09,3.29.73.73,1.77,1.1,3.12,1.1,1.54,0,2.73-.5,3.58-1.51.85-1.01,1.27-2.41,1.27-4.22v-9.88h5.01v19.45h-4.93v-2.55h-.72c-.32.65-.92,1.29-1.79,1.92-.88.63-2.2.94-3.98.94Z"/>
      <path class="cls-2" d="m590.41,688.79v-19.45h4.93v2.2h.72c.29-.78.78-1.36,1.45-1.73s1.47-.55,2.37-.55h2.39v4.39h-2.47c-1.27,0-2.32.33-3.14,1-.82.67-1.23,1.69-1.23,3.08v11.06h-5.01Z"/>
      <path class="cls-2" d="m625.27,689.34c-1.96,0-3.69-.41-5.19-1.24-1.5-.82-2.67-1.99-3.5-3.49-.84-1.5-1.25-3.27-1.25-5.31v-.47c0-2.04.41-3.81,1.23-5.31.82-1.5,1.98-2.67,3.46-3.49,1.49-.82,3.21-1.24,5.17-1.24s3.62.43,5.05,1.27,2.55,2.03,3.34,3.53c.8,1.5,1.19,3.25,1.19,5.24v1.69h-14.37c.05,1.33.56,2.42,1.51,3.25.95.84,2.12,1.25,3.5,1.25s2.44-.3,3.1-.9c.66-.6,1.17-1.27,1.51-2l4.1,2.12c-.37.68-.91,1.42-1.61,2.22-.7.8-1.64,1.48-2.81,2.04-1.17.56-2.65.84-4.46.84Zm-7.72-22.2l4.66-5.8h5.97l4.66,5.8h-5.05l-2.23-2.9h-.72l-2.23,2.9h-5.05Zm2.9,9.69h9.23c-.11-1.12-.56-2.03-1.37-2.71-.81-.68-1.86-1.02-3.16-1.02s-2.43.34-3.22,1.02-1.29,1.58-1.47,2.71Z"/>
      <path class="cls-2" d="m646.17,688.79c-1.3,0-2.35-.4-3.16-1.2-.81-.8-1.21-1.86-1.21-3.2v-10.98h-4.93v-4.08h4.93v-6.04h5.01v6.04h5.41v4.08h-5.41v10.12c0,.78.37,1.18,1.11,1.18h3.82v4.08h-5.57Z"/>
      <path class="cls-2" d="m656.75,688.79v-19.45h4.93v2.2h.72c.29-.78.78-1.36,1.45-1.73s1.47-.55,2.37-.55h2.39v4.39h-2.47c-1.27,0-2.32.33-3.14,1-.82.67-1.23,1.69-1.23,3.08v11.06h-5.01Z"/>
      <path class="cls-2" d="m680.79,689.34c-1.96,0-3.69-.41-5.19-1.24-1.5-.82-2.67-1.99-3.5-3.49-.84-1.5-1.25-3.27-1.25-5.31v-.47c0-2.04.41-3.81,1.23-5.31.82-1.5,1.98-2.67,3.46-3.49,1.49-.82,3.21-1.24,5.17-1.24s3.62.43,5.05,1.27c1.43.85,2.55,2.03,3.34,3.53.8,1.5,1.19,3.25,1.19,5.24v1.69h-14.37c.05,1.33.56,2.42,1.51,3.25.95.84,2.12,1.25,3.5,1.25s2.44-.3,3.1-.9c.66-.6,1.17-1.27,1.51-2l4.1,2.12c-.37.68-.91,1.42-1.61,2.22-.7.8-1.64,1.48-2.81,2.04-1.17.56-2.65.84-4.46.84Zm-4.82-12.51h9.23c-.11-1.12-.56-2.03-1.37-2.71-.81-.68-1.86-1.02-3.16-1.02s-2.43.34-3.22,1.02-1.29,1.58-1.47,2.71Z"/>
      <path class="cls-2" d="m704.86,688.79v-19.45h4.93v2.12h.72c.34-.65.92-1.22,1.71-1.71.8-.48,1.84-.73,3.14-.73,1.41,0,2.53.27,3.38.8.85.54,1.5,1.24,1.95,2.1h.72c.45-.84,1.09-1.53,1.91-2.08.82-.55,1.99-.82,3.5-.82,1.22,0,2.33.25,3.32.76,1,.51,1.79,1.28,2.39,2.31.6,1.03.9,2.33.9,3.9v12.79h-5.01v-12.43c0-1.07-.28-1.88-.84-2.41-.56-.54-1.34-.8-2.35-.8-1.14,0-2.02.36-2.65,1.08-.62.72-.94,1.75-.94,3.08v11.49h-5.01v-12.43c0-1.07-.28-1.88-.84-2.41s-1.34-.8-2.35-.8c-1.14,0-2.02.36-2.65,1.08-.62.72-.94,1.75-.94,3.08v11.49h-5.01Z"/>
      <path class="cls-2" d="m741.35,667.07c-.9,0-1.66-.29-2.29-.86s-.93-1.33-.93-2.27.31-1.7.93-2.28c.62-.57,1.39-.86,2.29-.86s1.7.29,2.31.86c.61.58.92,1.33.92,2.28s-.31,1.7-.92,2.27-1.38.86-2.31.86Zm-2.51,21.73v-19.45h5.01v19.45h-5.01Z"/>
      <path class="cls-2" d="m758.42,689.34c-1.96,0-3.69-.41-5.19-1.24-1.5-.82-2.67-1.99-3.5-3.49-.84-1.5-1.25-3.27-1.25-5.31v-.47c0-2.04.41-3.81,1.23-5.31.82-1.5,1.98-2.67,3.46-3.49,1.49-.82,3.21-1.24,5.17-1.24s3.62.43,5.05,1.27,2.55,2.03,3.34,3.53c.8,1.5,1.19,3.25,1.19,5.24v1.69h-14.37c.05,1.33.56,2.42,1.51,3.25.95.84,2.12,1.25,3.5,1.25s2.44-.3,3.1-.9c.66-.6,1.17-1.27,1.51-2l4.1,2.12c-.37.68-.91,1.42-1.61,2.22-.7.8-1.64,1.48-2.81,2.04-1.17.56-2.65.84-4.46.84Zm-4.82-12.51h9.23c-.11-1.12-.56-2.03-1.37-2.71-.81-.68-1.86-1.02-3.16-1.02s-2.43.34-3.22,1.02-1.29,1.58-1.47,2.71Z"/>
      <path class="cls-2" d="m779.91,689.11c-1.54,0-2.89-.35-4.04-1.04-1.15-.69-2.05-1.65-2.69-2.88-.64-1.23-.95-2.64-.95-4.24v-11.61h5.01v11.22c0,1.47.36,2.56,1.09,3.29.73.73,1.77,1.1,3.12,1.1,1.54,0,2.73-.5,3.58-1.51.85-1.01,1.27-2.41,1.27-4.22v-9.88h5.01v19.45h-4.93v-2.55h-.72c-.32.65-.92,1.29-1.79,1.92-.88.63-2.2.94-3.98.94Z"/>
      <path class="cls-2" d="m795.15,688.79l7.16-9.8-7.08-9.65h5.81l4.5,6.47h.72l4.5-6.47h5.81l-7.08,9.65,7.16,9.8h-5.89l-4.5-6.55h-.72l-4.5,6.55h-5.89Z"/>
      <path class="cls-2" d="m834.71,688.79l-6.29-19.45h5.33l4.58,15.84h.72l4.58-15.84h5.33l-6.29,19.45h-7.96Z"/>
      <path class="cls-2" d="m859.9,689.11c-1.54,0-2.89-.35-4.04-1.04-1.15-.69-2.05-1.65-2.69-2.88-.64-1.23-.95-2.64-.95-4.24v-11.61h5.01v11.22c0,1.47.36,2.56,1.09,3.29.73.73,1.77,1.1,3.12,1.1,1.54,0,2.73-.5,3.58-1.51.85-1.01,1.27-2.41,1.27-4.22v-9.88h5.01v19.45h-4.93v-2.55h-.72c-.32.65-.92,1.29-1.79,1.92-.88.63-2.2.94-3.98.94Z"/>
      <path class="cls-2" d="m885.09,689.34c-2.57,0-4.68-.55-6.33-1.65-1.64-1.1-2.64-2.67-2.98-4.71l4.62-1.18c.18.92.5,1.63.93,2.16.44.52.98.9,1.63,1.12.65.22,1.36.33,2.13.33,1.17,0,2.03-.2,2.59-.61.56-.4.84-.91.84-1.51s-.27-1.07-.8-1.39c-.53-.33-1.38-.59-2.55-.8l-1.11-.2c-1.38-.26-2.64-.62-3.78-1.08-1.14-.46-2.06-1.09-2.75-1.9-.69-.81-1.03-1.86-1.03-3.14,0-1.93.72-3.42,2.15-4.45,1.43-1.03,3.32-1.55,5.65-1.55,2.2,0,4.03.48,5.49,1.45,1.46.97,2.41,2.24,2.87,3.8l-4.66,1.41c-.21-.99-.64-1.7-1.29-2.12-.65-.42-1.45-.63-2.41-.63s-1.68.16-2.19.49c-.5.33-.76.78-.76,1.35,0,.63.27,1.09.8,1.39.53.3,1.25.53,2.15.69l1.11.2c1.48.26,2.83.61,4.04,1.04,1.21.43,2.16,1.05,2.87,1.84.7.8,1.05,1.88,1.05,3.24,0,2.04-.75,3.61-2.25,4.73s-3.51,1.67-6.03,1.67Z"/>
    </g>
    <g>
      <path class="cls-1" d="m419.01,492.8c-6.96,1.81-13.75,4.25-20.26,7.3-4.37,2.05-10.58,7.18-15.8,5.31-2.34-.84-2.64-2.36-2.71-3.32v-5.82c0-.34-.05-.67-.15-.98h0c-.42-1.33-1.66-2.29-3.13-2.29h-31.13c-1.81,0-3.28,1.46-3.28,3.27v115.85h-9.72c-5.67,0-8.51-3.04-8.51-9.12v-56.21c0-18.85-5.77-33.23-17.32-43.16-11.55-9.92-27.25-14.89-47.1-14.89-12.97,0-23.96,1.98-32.97,5.93-9.02,3.95-16.21,9.11-21.58,15.5-4.53,5.38-8.02,11.24-10.45,17.57.71,1.5,1.36,3.05,1.95,4.63l31.92,10.72c.07.03.15-.02.16-.09,1.43-6.82,4.46-12.4,9.09-16.73,4.66-4.35,11.75-6.53,21.27-6.53s16.82,2.28,21.27,6.84c4.46,4.55,6.69,10.38,6.69,17.47v8.38c0,.07-.06.13-.12.13h-41.21c-11.35,0-21.42,1.77-30.24,5.32-5.05,2.03-9.46,4.62-13.24,7.79-2.83,2.35-5.3,5.02-7.42,8.01-4.97,6.99-7.45,15.65-7.45,25.98,0,6.42.96,12.24,2.88,17.45,1.17,3.18,2.69,6.12,4.57,8.84,4.96,7.19,11.7,12.66,20.21,16.41s18.13,5.62,28.87,5.62,18.84-1.52,24.92-4.56c6.07-3.04,10.53-6.53,13.37-10.48,2.8-3.91,4.62-7.07,5.44-9.49.02-.05.06-.08.11-.08h5.57c.07,0,.12.05.12.12,0,5.7,2.57,11.15,7.1,14.62,4.89,3.74,11.13,5.62,18.73,5.62h25.4c.07,0,.13-.06.13-.13.27.08.55.13.84.13h31.74c1.81,0,3.27-1.47,3.27-3.28v-82.42c0-1.91.1-3.74.3-5.47h-.04s0,0,0,0h.04c1.78-15.48,12.81-21.9,26.54-26.36,4.92-1.6,11.37-3.37,18.31-4.64v-30.35c-2.35.47-4.68,1.01-6.98,1.61Zm-131.76,91.35c0,9.93-3.4,17.89-10.18,23.86-6.79,5.98-15.55,8.96-26.29,8.96-8.1,0-14.28-1.72-18.53-5.16-4.26-3.44-6.39-7.9-6.39-13.37s2.03-9.73,6.08-12.77c4.05-3.04,9.62-4.56,16.72-4.56h38.47c.06,0,.12.06.12.13v2.91Z"/>
      <path class="cls-2" d="m528.33,460.99v151.12h-9.72c-5.68,0-8.51-3.04-8.51-9.11v-56.23c0-18.84-5.78-33.22-17.32-43.15-5.6-4.82-12.19-8.46-19.76-10.95h0c-15.02-4.91-31.53-4.6-47.03-1.48v30.35c21.25-3.88,47.03-2.98,47.03,22.49v8.38c0,.07-.05.13-.12.13h-41.21c-11.35,0-21.42,1.77-30.23,5.32-8.79,3.53-15.66,8.77-20.61,15.72-.02.03-.04.05-.06.08-4.97,6.99-7.44,15.65-7.44,25.98s2.47,19.1,7.44,26.29c.02.03.04.05.06.08,4.95,7.15,11.67,12.59,20.15,16.33,8.51,3.75,18.13,5.62,28.87,5.62s18.84-1.52,24.92-4.56,10.53-6.53,13.37-10.48c2.8-3.91,4.62-7.07,5.44-9.49.05-.03.07-.05.12-.08h5.56c.07,0,.12.05.12.12,0,5.7,2.57,11.15,7.1,14.62,4.89,3.74,11.14,5.62,18.73,5.62h61.39v-188.73l-38.29,6Zm-55.31,123.16c0,9.93-3.39,17.89-10.18,23.86-6.79,5.98-15.55,8.96-26.28,8.96-8.11,0-14.29-1.72-18.54-5.16-4.26-3.44-6.38-7.9-6.38-13.37s2.02-9.73,6.07-12.77c4.05-3.04,9.62-4.56,16.72-4.56h38.47c.07,0,.12.06.12.13v2.91Z"/>
    </g>
  </g>
</svg>